<?xml version="1.0" encoding="utf-8"?>
<!-- Generator: Adobe Illustrator 24.1.1, SVG Export Plug-In . SVG Version: 6.00 Build 0)  -->
<svg version="1.1" id="Layer_1" xmlns="http://www.w3.org/2000/svg" xmlns:xlink="http://www.w3.org/1999/xlink" x="0px" y="0px"
	 viewBox="0 0 489 320" style="enable-background:new 0 0 489 320;" xml:space="preserve">
<style type="text/css">
	.st0{fill:#4070F4;fill-opacity:8.000000e-02;}
	.st1{fill:#101C3D;stroke:#101C3D;stroke-width:0.5;}
	.st2{fill:#DFE6F2;stroke:#0C152E;}
	.st3{fill-rule:evenodd;clip-rule:evenodd;fill:#F7F9FB;stroke:#101C3D;}
	.st4{fill:#4070F4;stroke:#0C152E;}
	.st5{fill:#F9F9F9;stroke:#0C152E;}
	.st6{fill:#0C152E;stroke:#0C152E;}
	.st7{fill:#DFE6F2;}
	.st8{fill:#29E5D7;}
	.st9{fill:#101C3D;}
	.st10{fill-rule:evenodd;clip-rule:evenodd;fill:#F7F9FB;stroke:#0C152E;}
	.st11{fill:none;stroke:#0C152E;}
	.st12{fill:#4070F4;}
	.st13{fill:#6AD8CD;}
</style>
<desc>Created with Sketch.</desc>
<g id="Page-1">
	<g id="_x30_.0.1-404" transform="translate(-573.000000, -200.000000)">
		<g id="_x34_04" transform="translate(573.000000, 200.500000)">
			<path class="st0" d="M181.8,116.8v32h-18.8v29.8h-34.8v-29.8H45.6v-32L103.8,3.5h37l-58,113.3h45.5V75.3h34.8v41.5H181.8z
				 M266,182c-44.5,0-70-37-70-91s25.5-91,70-91c44.8,0,70,37,70,91S310.8,182,266,182z M266,148.3c23.5,0,35.8-20.3,35.8-57.3
				S289.5,33.5,266,33.5S230.5,54,230.5,91S242.5,148.3,266,148.3z M488.2,116.8v32h-18.8v29.8h-34.8v-29.8H352v-32L410.2,3.5h37
				l-58,113.3h45.5V75.3h34.8v41.5H488.2z"/>
			<g id="a-ill-NetworkStandby_x2F_white_x2F_800x480" transform="translate(182.000000, 38.500000)">
				<path id="Path" class="st1" d="M74.7,242.5v-16.2h-3.9c-7.1,3.1-22.6,8-35.5,0h-6.8c-15.4,0-27.8,12.5-27.8,27.8
					c0,14.1,11.4,25.5,25.5,25.5h48c12.7,0,23-10.3,23-23v-7.3c0-2.3-0.3-4.6-1-6.8L74.7,242.5z"/>
				<path id="Path_1_" class="st2" d="M74.7,242.5v-16.2h-3.9c-7.1,3.1-22.5,8-35.3,0.1c-14.2,1.2-25,13.5-24.3,27.7
					s12.3,25.5,26.6,25.5h43.2c9,0,17.3-4.5,22.3-12c4.9-7.5,5.8-17,2.3-25.2H74.7z"/>
				<path id="Path_2_" class="st3" d="M74.7,224.4c0,0-31.4,18.1-48.7-7.3c0,0-20.3-31.2,11.1-70.3"/>
				<path id="Path_3_" class="st4" d="M156.9,249.3l-33.3-19.6l-0.1,0.1c-0.5,7.7-1.2,12.7-1.2,12.7h-13.2l-14.5,12.8l15.3,9.4
					l6.4-10.5l15,24.8h36.5L156.9,249.3z"/>
				<path id="Path_4_" class="st3" d="M115.2,158.5c0,0,45.6-2.1,64.8,20.2s-23.3,70.9-23.3,70.9l-32.5-19.8"/>
				<path id="Path_5_" class="st5" d="M137.4,193.9c-1,2-13.3,23.3-13.3,23.3"/>
				<polygon id="Path_6_" class="st4" points="75,242.7 122.2,242.7 142.6,279.6 97.2,279.6 89.6,267.3 89.6,279.6 71.7,279.6 				
					"/>
				<ellipse id="Oval" class="st6" cx="84.8" cy="94.6" rx="10.1" ry="3"/>
				<circle id="Oval_1_" class="st5" cx="84.8" cy="61.1" r="22.8"/>
				<path id="Path_7_" class="st7" d="M107,56.8c-0.6-3.7-2.5-7.1-5.2-9.6c-0.4-0.4-0.9-0.8-1.3-1.2l-0.4-0.3l-1-0.7l-0.5-0.3
					c-0.4-0.2-0.8-0.5-1.2-0.7L97,43.7c-0.5-0.3-1-0.5-1.5-0.7c-0.2-0.1-0.4-0.2-0.6-0.2c-0.2-0.1-0.6-0.2-1-0.3l-0.7-0.2L92.3,42
					c-0.3,0-0.5-0.1-0.8-0.2c-0.5-0.1-1-0.2-1.4-0.2c-0.5,0-0.7,0-1-0.1h-0.6c-0.3,0-0.7,0-1,0H87c-1.3,0.1-2.5,0.3-3.8,0.6H83
					c-0.4,0.1-0.8,0.2-1.2,0.4l-0.3,0.1c-5.2,1.9-9.4,5.9-11.4,11c0.6,4.7-3.6,1.1,0.4,4.4c0.1,0.1-11.7,1.1-8.1,3.4
					c8.4,5.4,39.7-4.7,39.7-4.7c1.1,6.1-1.6,14.8-6.3,19.5c-1.8,1.8-7,6.5-9.1,7.4c4.4-0.4,9.8-2.2,13.1-5.6
					C104.6,73.2,108.8,66.1,107,56.8L107,56.8z"/>
				<path id="Path_8_" class="st4" d="M84.4,59.7C72.7,61.9,58,61.5,58,61.5c-0.9-14.6,10.1-27.2,24.7-28.2
					c14.5-1,24.8,7.9,27.1,17.2C101.9,54.8,93.3,57.9,84.4,59.7z"/>
				<path id="Path_9_" class="st7" d="M29.4,158.9h8.7c0,0-28.9,28.3,2,69.3c0,0-24.2-7.4-19.5-45.4
					C21.9,174.4,24.9,166.2,29.4,158.9L29.4,158.9z"/>
				<path id="Path_10_" class="st8" d="M106.1,153.3c2.2,1.4,4.2,3.1,5.8,5.1h39.7c-0.2-37.4-30.5-67.7-67.9-67.9
					c-37.2,0-67.9,30.6-67.9,67.9c0,0.3,0,0.7,0,1l49.2-0.7C78.6,151.1,94.2,146,106.1,153.3z"/>
				<path id="Path_11_" class="st3" d="M74.7,204v38.5h47.6c0,0,10.1-72.9-16.2-89.1S35,181.7,35,181.7"/>
				<path id="Path_12_" class="st9" d="M74.1,204.1l0.7,22.1c0,0-4.2,0.9-5.4,0L74.1,204.1z"/>
				<polyline id="Path_13_" class="st9" points="124.5,217.3 137.1,193.8 124.5,213.6 				"/>
				<path id="Rectangle" class="st10" d="M117.3,0h37.2c4.1,0,7.4,3.3,7.4,7.4v14c0,4.1-3.3,7.4-7.4,7.4h-37.2
					c-4.1,0-7.4-3.3-7.4-7.4v-14C110,3.3,113.3,0,117.3,0z"/>
				<circle id="Oval_2_" class="st2" cx="121.9" cy="13.9" r="4"/>
				<circle id="Oval_3_" class="st2" cx="136.1" cy="13.9" r="4"/>
				<circle id="Oval_4_" class="st2" cx="150.3" cy="13.9" r="4"/>
				<circle id="Oval_5_" class="st11" cx="110.8" cy="35.8" r="4.4"/>
			</g>
			<polygon id="Path_14_" class="st12" points="389,265.8 435.5,265.8 479.8,221.5 434,221.5 			"/>
			<polygon id="Path_15_" class="st13" points="67.9,204.6 33.1,204.6 0,171.5 34.3,171.5 			"/>
		</g>
	</g>
</g>
</svg>
